<svg width="337" height="70.18365860870308" viewBox="0 0 349.78431372549016 72.84612124981987" class="css-1j8o68f"><defs id="SvgjsDefs1456"></defs><g id="SvgjsG1457" featurekey="Df7oLJ-0" transform="matrix(3.431372549019608,0,0,3.431372549019608,-8.57843137254902,-6.578431372549019)" fill="#1985f9"><g xmlns="http://www.w3.org/2000/svg"><path d="M19,2.5H6C4.07,2.5,2.5,4.07,2.5,6v13c0,1.93,1.57,3.5,3.5,3.5h13c1.93,0,3.5-1.57,3.5-3.5V6C22.5,4.07,20.93,2.5,19,2.5z    M12,5.5h1c0.276,0,0.5,0.224,0.5,0.5S13.276,6.5,13,6.5h-1c-0.276,0-0.5-0.224-0.5-0.5S11.724,5.5,12,5.5z M9,5.5h1   c0.276,0,0.5,0.224,0.5,0.5S10.276,6.5,10,6.5H9C8.724,6.5,8.5,6.276,8.5,6S8.724,5.5,9,5.5z M5.5,6c0-0.276,0.224-0.5,0.5-0.5h1   c0.276,0,0.5,0.224,0.5,0.5S7.276,6.5,7,6.5H6C5.724,6.5,5.5,6.276,5.5,6z M18.854,16.854l-2,2C16.756,18.951,16.628,19,16.5,19   s-0.256-0.049-0.354-0.146l-2.243-2.242c-0.195-0.195-0.195-0.512,0-0.707s0.512-0.195,0.707,0l1.889,1.889l1.646-1.646   c0.195-0.195,0.512-0.195,0.707,0S19.049,16.658,18.854,16.854z M18.854,10.854l-3,3c-0.169,0.169-0.433,0.195-0.631,0.062   l-2.659-1.772L9.207,15.5l0.356,0.356l2.231-1.487c0.228-0.153,0.541-0.092,0.693,0.139c0.153,0.229,0.091,0.54-0.139,0.693   l-2.572,1.715C9.693,16.973,9.596,17,9.5,17c-0.129,0-0.257-0.05-0.354-0.146l-2.057-2.057c0,0,0-0.001-0.001-0.002l-0.942-0.941   c-0.195-0.195-0.195-0.512,0-0.707s0.512-0.195,0.707,0L8.5,14.793l3.646-3.646c0.168-0.169,0.433-0.195,0.631-0.062l2.659,1.772   l2.71-2.71c0.195-0.195,0.512-0.195,0.707,0S19.049,10.658,18.854,10.854z"></path></g></g><g id="SvgjsG1458" featurekey="Ua4uQk-0" transform="matrix(4.015773081634689,0,0,4.015773081634689,84.9039105758925,-22.72927885903364)" fill="#cadefc"><path d="M8.22 20 l-3.38 -4.04 l-0.66 0.7 l0 3.34 l-3.16 0 l0 -3.78 l0 -10.36 l3.16 0 l0 6.94 l2.94 -3.2 l3.78 0 l-4.12 4.34 l5.04 6.06 l-3.6 0 z M21.12 11.96 c1.18 0.6 2.16 1.92 2.16 3.56 c0 3 -2.68 4.68 -5.18 4.68 c-2.48 0 -5.18 -1.68 -5.18 -4.68 c0 -1.64 0.98 -2.96 2.18 -3.56 c-0.58 -0.5 -1.18 -1.34 -1.18 -2.46 c0 -1.98 1.62 -3.7 4.18 -3.7 s4.18 1.72 4.18 3.7 c0 1.12 -0.6 1.96 -1.16 2.46 z M16.92 9.7 c0 0.6 0.4 1.12 1.18 1.12 s1.18 -0.52 1.18 -1.12 c0 -0.7 -0.56 -1.12 -1.18 -1.12 c-0.6 0 -1.18 0.42 -1.18 1.12 z M18.1 17.38 c1.06 0 1.84 -0.76 1.84 -1.82 c0 -1.3 -0.94 -1.94 -1.84 -1.94 s-1.82 0.64 -1.82 1.94 c0 1.08 0.72 1.82 1.82 1.82 z M30.84 9.42 c2.38 0 5.12 1.78 5.12 5.36 c0 3.72 -2.74 5.42 -5.12 5.42 c-1.6 0 -2.54 -0.88 -2.68 -1.24 l0 4.84 l-3.16 0 l0 -6.02 l0 -8.18 l3.16 0 l0 0.96 c0.14 -0.22 1.08 -1.14 2.68 -1.14 z M30.380000000000003 17.42 c1.36 0 2.52 -0.92 2.52 -2.64 c0 -1.66 -1.16 -2.58 -2.52 -2.58 c-1.3 0 -2.36 0.9 -2.36 2.58 c0 1.74 1.06 2.64 2.36 2.64 z M42.839999999999996 9.42 c2.36 0 5.66 1.78 5 6.48 l-7.26 0 c0.36 1.08 1.3 1.64 2.56 1.64 c1.28 0 1.68 -0.28 2.4 -0.58 l1.74 1.68 c-0.92 0.9 -2.16 1.56 -4.26 1.56 c-2.58 0 -5.66 -1.78 -5.66 -5.36 c0 -3.64 3.12 -5.42 5.48 -5.42 z M42.839999999999996 12.120000000000001 c-0.9 0 -1.82 0.52 -2.22 1.56 l4.42 0 c-0.32 -1.04 -1.3 -1.56 -2.2 -1.56 z M56.32 9.44 c0.28 0 0.56 0 0.82 0.06 l0 3.02 c-0.24 -0.06 -0.52 -0.06 -0.72 -0.06 c-1.92 0 -3.46 1.38 -3.62 3.3 l0 4.24 l-3.16 0 l0 -10.4 l3.16 0 l0 2.54 c0.48 -1.56 1.68 -2.7 3.52 -2.7 z M63.62 8.26 c-0.9 0 -0.88 0.82 -0.88 1.02 l0 0.32 l2.16 0 l0 2.6 l-2.16 0 l0 7.8 l-3.18 0 l0 -7.8 l-1.42 0 l0 -2.6 l1.42 0 l0 -0.32 c0 -3.22 2.42 -3.62 3.68 -3.62 c1 0 1.98 0.22 2.72 0.7 l-1.06 2.18 c-0.58 -0.22 -0.8 -0.28 -1.28 -0.28 z"></path></g></svg>